<?xml version="1.0" encoding="UTF-8"?><svg id="Layer_1" xmlns="http://www.w3.org/2000/svg" viewBox="0 0 203.38 177.74"><defs><style>.cls-1{fill:#17a050;stroke-width:0px;}</style></defs><path class="cls-1" d="m83.84,0c-6.73,0-12.19,5.46-12.19,12.19v152.7c0,6.73,5.46,12.19,12.19,12.19s12.19-5.46,12.19-12.19V12.19c0-6.73-5.46-12.19-12.19-12.19Z"/><path class="cls-1" d="m119.68,71.01c-6.73,0-12.19,5.46-12.19,12.19v82.36c0,6.73,5.46,12.19,12.19,12.19s12.19-5.46,12.19-12.19v-82.36c0-6.73-5.46-12.19-12.19-12.19Z"/><path class="cls-1" d="m155.51,126.36c-6.73,0-12.19,5.46-12.19,12.19v26.57c0,6.73,5.46,12.19,12.19,12.19s12.19-5.46,12.19-12.19v-26.57c0-6.73-5.46-12.19-12.19-12.19Z"/><path class="cls-1" d="m48.02,35.16c-6.73,0-12.19,5.46-12.19,12.19v82.36c0,6.73,5.46,12.19,12.19,12.19s12.19-5.46,12.19-12.19V47.34c0-6.73-5.46-12.19-12.19-12.19Z"/><path class="cls-1" d="m12.19,61.84c-6.73,0-12.19,5.46-12.19,12.19v26.57c0,6.73,5.46,12.19,12.19,12.19s12.19-5.46,12.19-12.19v-26.57c0-6.73-5.46-12.19-12.19-12.19Z"/><path class="cls-1" d="m191.19,153c-6.73,0-12.19,5.46-12.19,12.19h0c0,6.73,5.46,12.19,12.19,12.19s12.19-5.46,12.19-12.19h0c0-6.73-5.46-12.19-12.19-12.19Z"/></svg>